<!DOCTYPE svg PUBLIC "-//W3C//DTD SVG 1.1//EN" "http://www.w3.org/Graphics/SVG/1.1/DTD/svg11.dtd">
<!-- Uploaded to: SVG Repo, www.svgrepo.com, Transformed by: SVG Repo Mixer Tools -->
<svg fill="#949aa3" width="800px" height="800px" viewBox="0 0 24 24" xmlns="http://www.w3.org/2000/svg" stroke="#949aa3">
<g id="SVGRepo_bgCarrier" stroke-width="0"/>
<g id="SVGRepo_tracerCarrier" stroke-linecap="round" stroke-linejoin="round"/>
<g id="SVGRepo_iconCarrier"> <g data-name="Layer 2"> <g data-name="arrowhead-right"> <rect width="24" height="24" transform="rotate(-90 12 12)" opacity="0"/> <path d="M18.78 11.37l-4.78-6a1 1 0 0 0-1.41-.15 1 1 0 0 0-.15 1.41L16.71 12l-4.48 5.37a1 1 0 0 0 .13 1.41A1 1 0 0 0 13 19a1 1 0 0 0 .77-.36l5-6a1 1 0 0 0 .01-1.27z"/> <path d="M7 5.37a1 1 0 0 0-1.61 1.26L9.71 12l-4.48 5.36a1 1 0 0 0 .13 1.41A1 1 0 0 0 6 19a1 1 0 0 0 .77-.36l5-6a1 1 0 0 0 0-1.27z"/> </g> </g> </g>
</svg>