<svg xmlns="http://www.w3.org/2000/svg" xmlns:xlink="http://www.w3.org/1999/xlink" fill="none" version="1.1" width="13.697233200073242" height="16" viewBox="0 0 13.697233200073242 16"><g transform="matrix(1,0,0,-1,0,32)"><path d="M6.84862,32Q6.42067,32,6.14556,31.7188Q5.87045,31.4375,5.87045,31L5.87045,30.4062Q4.15866,30.0312,3.08879,28.6875Q1.98836,27.3438,1.95779,25.5L1.95779,24.90625Q1.92722,22.65625,0.490539,20.9375L0.245997,20.65625Q-0.151383,20.1875,0.0931587,19.59375Q0.368268,19.03125,0.979622,19L12.7176,19Q13.329,19.03125,13.6041,19.59375Q13.8486,20.1875,13.4512,20.65625L13.2373,20.9375Q11.77,22.625,11.7394,24.90625L11.7394,25.5Q11.7089,27.3438,10.6084,28.6875Q9.53857,30.0312,7.82678,30.4062L7.82678,31Q7.82678,31.4375,7.55167,31.7188Q7.27656,32,6.84862,32ZM8.22416,16.59375Q8.80495,17.1875,8.80495,18L6.84862,18L4.89229,18Q4.89229,17.1875,5.47307,16.59375Q6.05386,16,6.84862,16Q7.64338,16,8.22416,16.59375Z" fill="#9CA3AF" fill-opacity="1" style="mix-blend-mode:passthrough"/></g></svg>