<svg xmlns="http://www.w3.org/2000/svg" xmlns:xlink="http://www.w3.org/1999/xlink" fill="none" version="1.1" width="14" height="12.25" viewBox="0 0 14 12.25"><g transform="matrix(1,0,0,-1,0,24.5)"><path d="M0.875,24.5Q1.25781,24.5,1.50391,24.2539Q1.75,24.0078,1.75,23.625L1.75,14.4375Q1.77734,14.02734,2.1875,14L13.125,14Q13.5078,14,13.7539,13.75391Q14,13.50781,14,13.125Q14,12.742188,13.7539,12.496094Q13.5078,12.25,13.125,12.25L2.1875,12.25Q1.25781,12.2773438,0.628906,12.878906Q0.0273438,13.50781,0,14.4375L0,23.625Q0,24.0078,0.246094,24.2539Q0.492188,24.5,0.875,24.5ZM3.5,21.875Q3.5,22.2578,3.74609,22.5039Q3.99219,22.75,4.375,22.75L9.625,22.75Q10.0078,22.75,10.2539,22.5039Q10.5,22.2578,10.5,21.875Q10.5,21.49219,10.2539,21.246090000000002Q10.0078,21,9.625,21L4.375,21Q3.99219,21,3.74609,21.246090000000002Q3.5,21.49219,3.5,21.875ZM4.375,20.125L7.875,20.125L4.375,20.125L7.875,20.125Q8.25781,20.125,8.50391,19.87891Q8.75,19.63281,8.75,19.25Q8.75,18.86719,8.50391,18.62109Q8.25781,18.375,7.875,18.375L4.375,18.375Q3.99219,18.375,3.74609,18.62109Q3.5,18.86719,3.5,19.25Q3.5,19.63281,3.74609,19.87891Q3.99219,20.125,4.375,20.125ZM4.375,17.5L11.375,17.5L4.375,17.5L11.375,17.5Q11.7578,17.5,12.0039,17.25391Q12.25,17.00781,12.25,16.625Q12.25,16.24219,12.0039,15.99609Q11.7578,15.75,11.375,15.75L4.375,15.75Q3.99219,15.75,3.74609,15.99609Q3.5,16.24219,3.5,16.625Q3.5,17.00781,3.74609,17.25391Q3.99219,17.5,4.375,17.5Z" fill="#4B5563" fill-opacity="1" style="mix-blend-mode:passthrough"/></g></svg>