<svg id="SvgjsSvg1001" width="288" height="288" xmlns="http://www.w3.org/2000/svg" version="1.1" xmlns:xlink="http://www.w3.org/1999/xlink" xmlns:svgjs="http://svgjs.com/svgjs"><defs id="SvgjsDefs1002"></defs><g id="SvgjsG1008"><svg xmlns="http://www.w3.org/2000/svg" fill="none" viewBox="0 0 14 13.125" width="288" height="288"><path fill="#4b5563" d="M5.03125,24.9375L8.96875,24.9375L5.03125,24.9375L8.96875,24.9375Q9.16016,24.9102,9.1875,24.7188L9.1875,23.625L4.8125,23.625L4.8125,24.7188Q4.83984,24.9102,5.03125,24.9375ZM3.5,24.7188L3.5,23.625L3.5,24.7188L3.5,23.625L1.75,23.625Q1.01172,23.5977,0.519531,23.10547Q0.0273438,22.61328,0,21.875L0,19.25L5.25,19.25L14,19.25L14,21.875Q13.9727,22.61328,13.4805,23.10547Q12.9883,23.5977,12.25,23.625L10.5,23.625L10.5,24.7188Q10.4727,25.375,10.0625,25.8125Q9.625,26.2227,8.96875,26.25L5.03125,26.25Q4.375,26.2227,3.9375,25.8125Q3.52734,25.375,3.5,24.7188ZM14,18.375L8.75,18.375L14,18.375L8.75,18.375L8.75,17.5Q8.75,17.11719,8.50391,16.87109Q8.25781,16.625,7.875,16.625L6.125,16.625Q5.74219,16.625,5.49609,16.87109Q5.25,17.11719,5.25,17.5L5.25,18.375L0,18.375L0,14.875Q0.0273438,14.13672,0.519531,13.644531Q1.01172,13.1523438,1.75,13.125L12.25,13.125Q12.9883,13.1523438,13.4805,13.644531Q13.9727,14.13672,14,14.875L14,18.375Z" style="mix-blend-mode:passthrough" transform="matrix(1 0 0 -1 0 26.25)" class="color000 svgShape"></path></svg></g></svg>