<svg xmlns="http://www.w3.org/2000/svg" xmlns:xlink="http://www.w3.org/1999/xlink" fill="none" version="1.1" width="13.1875" height="14" viewBox="0 0 13.1875 14"><g transform="matrix(1,0,0,-1,0,28)"><path d="M13.1562,23.433590000000002Q13.2656,23.05078,12.9922,22.777340000000002L11.7891,21.68359Q11.8438,21.35547,11.8438,21Q11.8438,20.64453,11.7891,20.31641L12.9922,19.22266Q13.2656,18.94922,13.1562,18.56641Q12.9648,18.07422,12.7188,17.60938L12.582,17.39062Q12.3086,16.95312,11.9805,16.54297Q11.707,16.24219,11.3242,16.35156L9.79297,16.84375Q9.24609,16.40625,8.58984,16.16016L8.26172,14.574219Q8.15234,14.191406,7.74219,14.109375Q7.19531,14,6.59375,14Q5.99219,14,5.41797,14.109375Q5.03516,14.191406,4.92578,14.574219L4.59766,16.16016Q3.94141,16.40625,3.39453,16.84375L1.86328,16.35156Q1.48047,16.24219,1.20703,16.54297Q0.851562,16.95312,0.605469,17.39062L0.46875,17.60938Q0.222656,18.07422,0.03125,18.53906Q-0.078125,18.94922,0.195313,19.22266L1.39844,20.28906Q1.34375,20.64453,1.34375,21Q1.34375,21.35547,1.39844,21.68359L0.195313,22.777340000000002Q-0.078125,23.05078,0.03125,23.433590000000002Q0.222656,23.92578,0.46875,24.3906L0.605469,24.6094Q0.851562,25.0469,1.20703,25.457Q1.48047,25.7578,1.86328,25.648400000000002L3.39453,25.1562Q3.94141,25.5938,4.59766,25.8672L4.92578,27.425800000000002Q5.03516,27.8086,5.44531,27.8906Q5.99219,28,6.59375,28Q7.19531,28,7.76953,27.8906Q8.15234,27.8086,8.26172,27.425800000000002L8.58984,25.8672Q9.24609,25.5938,9.79297,25.1562L11.3242,25.648400000000002Q11.707,25.7578,11.9805,25.457Q12.3359,25.0469,12.6094,24.6094L12.7188,24.3906Q12.9648,23.92578,13.1562,23.433590000000002ZM6.59375,18.8125Q7.82422,18.83984,8.48047,19.90625Q9.08203,21,8.48047,22.09375Q7.82422,23.160159999999998,6.59375,23.1875Q5.36328,23.160159999999998,4.70703,22.09375Q4.10547,21,4.70703,19.90625Q5.36328,18.83984,6.59375,18.8125Z" fill="#4B5563" fill-opacity="1" style="mix-blend-mode:passthrough"/></g></svg>