<svg xmlns="http://www.w3.org/2000/svg" xmlns:xlink="http://www.w3.org/1999/xlink" fill="none" version="1.1" width="16" height="16" viewBox="0 0 16 16"><g transform="matrix(1,0,0,-1,0,32)"><path d="M8,16Q10.1875,16.03125,12,17.0625Q13.8125,18.125,14.9375,20Q16,21.90625,16,24Q16,26.0938,14.9375,28Q13.8125,29.875,12,30.9375Q10.1875,31.9688,8,32Q5.8125,31.9688,4,30.9375Q2.1875,29.875,1.0625,28Q0,26.0938,0,24Q0,21.90625,1.0625,20Q2.1875,18.125,4,17.0625Q5.8125,16.03125,8,16ZM11.5312,25.46875L7.53125,21.46875L11.5312,25.46875L7.53125,21.46875Q7,21.03125,6.46875,21.46875L4.46875,23.46875Q4.03125,24,4.46875,24.53125Q5,24.96875,5.53125,24.53125L7,23.0625L10.4688,26.5312Q11,26.9688,11.5312,26.5312Q11.9688,26,11.5312,25.46875Z" fill="#3B82F6" fill-opacity="1" style="mix-blend-mode:passthrough"/></g></svg>