<svg xmlns="http://www.w3.org/2000/svg" xmlns:xlink="http://www.w3.org/1999/xlink" fill="none" version="1.1" width="17.5" height="14" viewBox="0 0 17.5 14"><g transform="matrix(1,0,0,-1,0,28)"><path d="M3.9375,28Q5.16797,27.9727,5.82422,26.9062Q6.42578,25.8125,5.82422,24.7188Q5.16797,23.652340000000002,3.9375,23.625Q2.70703,23.652340000000002,2.05078,24.7188Q1.44922,25.8125,2.05078,26.9062Q2.70703,27.9727,3.9375,28ZM14,28Q15.2305,27.9727,15.8867,26.9062Q16.4883,25.8125,15.8867,24.7188Q15.2305,23.652340000000002,14,23.625Q12.7695,23.652340000000002,12.1133,24.7188Q11.5117,25.8125,12.1133,26.9062Q12.7695,27.9727,14,28ZM0,19.82422Q0.0273438,21.08203,0.847656,21.90234Q1.66797,22.722659999999998,2.92578,22.75L4.07422,22.75Q4.73047,22.75,5.30469,22.47656Q5.25,22.17578,5.25,21.875Q5.30469,20.26172,6.42578,19.25L0.574219,19.25Q0.0546875,19.30469,0,19.82422ZM11.0742,19.25Q12.1953,20.26172,12.25,21.875Q12.25,22.17578,12.1953,22.47656Q12.7695,22.75,13.4258,22.75L14.5742,22.75Q15.832,22.722659999999998,16.6523,21.90234Q17.4727,21.08203,17.5,19.82422Q17.4453,19.30469,16.9258,19.25L11.0742,19.25ZM6.125,21.875Q6.125,22.58594,6.48047,23.1875Q6.83594,23.78906,7.4375,24.1445Q8.06641,24.5,8.75,24.5Q9.43359,24.5,10.0625,24.1445Q10.6641,23.78906,11.0195,23.1875Q11.375,22.58594,11.375,21.875Q11.375,21.16406,11.0195,20.5625Q10.6641,19.96094,10.0625,19.60547Q9.43359,19.25,8.75,19.25Q8.06641,19.25,7.4375,19.60547Q6.83594,19.96094,6.48047,20.5625Q6.125,21.16406,6.125,21.875ZM3.5,14.738281Q3.52734,16.26953,4.56641,17.30859Q5.60547,18.34766,7.13672,18.375L10.3633,18.375Q11.8945,18.34766,12.9336,17.30859Q13.9727,16.26953,14,14.738281Q13.9453,14.0546875,13.2617,14L4.23828,14Q3.55469,14.0546875,3.5,14.738281Z" fill="#4B5563" fill-opacity="1" style="mix-blend-mode:passthrough"/></g></svg>